<?xml version="1.0" encoding="utf-8"?>
<!-- Generator: Adobe Illustrator 26.5.0, SVG Export Plug-In . SVG Version: 6.00 Build 0)  -->
<svg version="1.1" id="Layer_1" xmlns="http://www.w3.org/2000/svg" xmlns:xlink="http://www.w3.org/1999/xlink" x="0px" y="0px"
	 viewBox="0 0 512 512" style="enable-background:new 0 0 512 512;" xml:space="preserve">
<path d="M256,32C114.6,32,0,125.1,0,240c0,47.6,19.9,91.2,52.9,126.2c-14.9,39.5-45.9,72.9-46.4,73.2c-6.6,7-8.4,17.2-4.6,26
	C5.8,474.2,14.4,480,24,480c61.5,0,109.1-25.8,139.1-46.2c28,9,60.2,14.2,92.9,14.2c141.4,0,255.1-93.1,255.1-208S397.4,32,256,32z
	 M256.6,320.5c37.2,0,63.2-17.5,78.4-33.9c8.9-9.7,24.1-10.4,33.9-1.4c9.7,9,10.3,24.2,1.3,33.9c-21.9,23.9-59.9,49.4-113.6,49.4
	S164.9,343,143,319.1c-9-9.7-9.3-24.9,1.3-33.9c9.8-9,25-8.3,33.9,1.4C193.4,303,219.4,320.5,256.6,320.5z M209,176.5
	c0,17.7-14.4,32-32,32c-17.7,0-32-14.3-32-32s14.3-32,32-32C194.6,144.5,209,158.8,209,176.5z M305,176.5c0-17.7,14.3-32,32-32
	c17.6,0,32,14.3,32,32s-14.4,32-32,32C319.4,208.5,305,194.2,305,176.5z"/>
</svg>
